<svg width="24" height="24" viewBox="0 0 24 24" fill="none" xmlns="http://www.w3.org/2000/svg">
<path d="M10.9814 2.77384C11.302 1.74206 12.698 1.74205 13.0186 2.77384L14.645 8.00801C14.7884 8.46944 15.1996 8.78185 15.6636 8.78185H20.9269C21.9644 8.78185 22.3958 10.1701 21.5565 10.8078L17.2984 14.0427C16.923 14.3279 16.7659 14.8333 16.9093 15.2948L18.5357 20.5289C18.8564 21.5607 17.727 22.4187 16.8876 21.781L12.6295 18.5461C12.2541 18.261 11.7458 18.261 11.3705 18.5461L7.11238 21.781C6.27301 22.4187 5.14364 21.5607 5.46426 20.5289L7.0907 15.2948C7.23408 14.8333 7.07701 14.3279 6.70163 14.0427L2.44354 10.8078C1.60417 10.1701 2.03555 8.78185 3.07307 8.78185H8.33636C8.80035 8.78185 9.21157 8.46944 9.35496 8.00801L10.9814 2.77384Z" fill="#FACC15"/>
</svg>
